<?xml version="1.0" encoding="UTF-8" standalone="no"?>
<!-- Created with Inkscape (http://www.inkscape.org/) -->

<svg
   xmlns:dc="http://purl.org/dc/elements/1.1/"
   xmlns:cc="http://creativecommons.org/ns#"
   xmlns:rdf="http://www.w3.org/1999/02/22-rdf-syntax-ns#"
   xmlns:svg="http://www.w3.org/2000/svg"
   xmlns="http://www.w3.org/2000/svg"
   xmlns:xlink="http://www.w3.org/1999/xlink"
   xmlns:sodipodi="http://sodipodi.sourceforge.net/DTD/sodipodi-0.dtd"
   xmlns:inkscape="http://www.inkscape.org/namespaces/inkscape"
   width="210mm"
   height="297mm"
   viewBox="0 0 744.09448819 1052.3622047"
   id="svg3659"
   version="1.1"
   inkscape:version="0.91 r13725"
   sodipodi:docname="UMSS.svg">
  <defs
     id="defs3661">
    <inkscape:path-effect
       effect="powerstroke"
       id="path-effect10590"
       is_visible="true"
       offset_points="0,3.3060303"
       sort_points="true"
       interpolator_type="Linear"
       interpolator_beta="0.2"
       start_linecap_type="zerowidth"
       linejoin_type="round"
       miter_limit="4"
       end_linecap_type="zerowidth"
       cusp_linecap_type="round" />
    <inkscape:path-effect
       cusp_linecap_type="round"
       end_linecap_type="zerowidth"
       miter_limit="4"
       linejoin_type="round"
       start_linecap_type="zerowidth"
       interpolator_beta="0.2"
       interpolator_type="Linear"
       sort_points="true"
       offset_points="0,3.3060303"
       is_visible="true"
       id="path-effect10594"
       effect="powerstroke" />
    <inkscape:path-effect
       effect="powerstroke"
       id="path-effect10598"
       is_visible="true"
       offset_points="0,3.3060303"
       sort_points="true"
       interpolator_type="Linear"
       interpolator_beta="0.2"
       start_linecap_type="zerowidth"
       linejoin_type="round"
       miter_limit="4"
       end_linecap_type="zerowidth"
       cusp_linecap_type="round" />
    <linearGradient
       inkscape:collect="always"
       xlink:href="#linearGradient10639"
       id="linearGradient10645"
       x1="369.1546"
       y1="362.86679"
       x2="369.1546"
       y2="353.7142"
       gradientUnits="userSpaceOnUse"
       gradientTransform="matrix(2.9050883,0,0,2.9050883,-708.71845,-950.88245)" />
    <linearGradient
       inkscape:collect="always"
       id="linearGradient10639">
      <stop
         style="stop-color:#1c2e9e;stop-opacity:1;"
         offset="0"
         id="stop10641" />
      <stop
         style="stop-color:#aaaaff;stop-opacity:1"
         offset="1"
         id="stop10643" />
    </linearGradient>
    <linearGradient
       inkscape:collect="always"
       xlink:href="#linearGradient10649"
       id="linearGradient10655"
       x1="511.99057"
       y1="514.85529"
       x2="498.12299"
       y2="514.85529"
       gradientUnits="userSpaceOnUse"
       gradientTransform="matrix(2.746764,0.94595208,-0.94595208,2.746764,-386.91194,-1379.6564)" />
    <linearGradient
       inkscape:collect="always"
       id="linearGradient10649">
      <stop
         style="stop-color:#666666;stop-opacity:1;"
         offset="0"
         id="stop10651" />
      <stop
         style="stop-color:#666666;stop-opacity:0;"
         offset="1"
         id="stop10653" />
    </linearGradient>
  </defs>
  <sodipodi:namedview
     id="base"
     pagecolor="#ffffff"
     bordercolor="#666666"
     borderopacity="1.0"
     inkscape:pageopacity="0.0"
     inkscape:pageshadow="2"
     inkscape:zoom="0.35"
     inkscape:cx="375"
     inkscape:cy="520"
     inkscape:document-units="px"
     inkscape:current-layer="layer1"
     showgrid="false"
     inkscape:window-width="1360"
     inkscape:window-height="716"
     inkscape:window-x="-8"
     inkscape:window-y="-8"
     inkscape:window-maximized="1" />
  <metadata
     id="metadata3664">
    <rdf:RDF>
      <cc:Work
         rdf:about="">
        <dc:format>image/svg+xml</dc:format>
        <dc:type
           rdf:resource="http://purl.org/dc/dcmitype/StillImage" />
        <dc:title></dc:title>
      </cc:Work>
    </rdf:RDF>
  </metadata>
  <g
     inkscape:label="Camada 1"
     inkscape:groupmode="layer"
     id="layer1">
    <path
       inkscape:connector-curvature="0"
       id="path3617"
       d="M 59.493218,74.84273 375.33941,983.70626 691.18563,74.84273 Z"
       style="fill:#ffffff;fill-rule:evenodd;stroke:#1d3163;stroke-width:11.62035275;stroke-linecap:butt;stroke-linejoin:miter;stroke-miterlimit:4;stroke-dasharray:none;stroke-opacity:1" />
    <path
       style="fill:#cf001c;fill-opacity:1;fill-rule:evenodd;stroke:none;stroke-width:1px;stroke-linecap:butt;stroke-linejoin:miter;stroke-opacity:1"
       d="M 70.682078,92.871271 377.2007,268.35035 172.09531,386.8557 Z"
       id="path10615"
       inkscape:connector-curvature="0"
       sodipodi:nodetypes="cccc" />
    <path
       sodipodi:nodetypes="cccc"
       inkscape:connector-curvature="0"
       id="path10617"
       d="M 681.71975,92.871271 375.20112,268.35035 580.30651,386.8557 Z"
       style="fill:#cf001c;fill-opacity:1;fill-rule:evenodd;stroke:none;stroke-width:1px;stroke-linecap:butt;stroke-linejoin:miter;stroke-opacity:1" />
    <path
       style="opacity:1;fill:url(#linearGradient10655);fill-opacity:1;stroke:none;stroke-width:2;stroke-linecap:round;stroke-linejoin:round;stroke-miterlimit:4;stroke-dasharray:none;stroke-opacity:1"
       d="M 641.11611,79.504989 682.05633,93.604283 376.23638,978.89311 354.6672,912.9476 Z"
       id="rect10647"
       inkscape:connector-curvature="0"
       sodipodi:nodetypes="ccccc" />
    <path
       style="fill:none;fill-rule:evenodd;stroke:#1d3163;stroke-width:11.62035275;stroke-linecap:butt;stroke-linejoin:miter;stroke-miterlimit:4;stroke-dasharray:none;stroke-opacity:1"
       d="M 59.493218,74.84273 375.33941,983.70626 691.18563,74.84273 Z"
       id="path10984"
       inkscape:connector-curvature="0" />
    <path
       inkscape:connector-curvature="0"
       id="path10624"
       style="font-style:normal;font-variant:normal;font-weight:bold;font-stretch:normal;font-size:30.71833038px;line-height:125%;font-family:Arial;-inkscape-font-specification:'Arial, Bold';text-align:start;letter-spacing:0px;word-spacing:0px;writing-mode:lr-tb;text-anchor:start;fill:#1c2e9e;fill-opacity:1;stroke:#1c2e9e;stroke-width:3.19559717;stroke-linecap:butt;stroke-linejoin:miter;stroke-miterlimit:4;stroke-dasharray:none;stroke-opacity:1"
       d="m 238.10661,112.78496 13.46,0 0,33.15289 q 0,7.89157 0.5002,10.22982 0.864,3.75785 4.0926,6.05435 3.27403,2.25472 8.91269,2.25472 5.72959,0 8.63988,-2.12945 2.91023,-2.17124 3.50139,-5.30281 0.59115,-3.13157 0.59115,-10.39683 l 0,-33.86269 13.46,0 0,32.15078 q 0,11.02314 -1.09135,15.57434 -1.09135,4.55123 -4.04711,7.68279 -2.91026,3.13157 -7.82134,5.0105 -4.91108,1.8372 -12.82338,1.8372 -9.54931,0 -14.50586,-2.00419 -4.91108,-2.04596 -7.77587,-5.26105 -2.86483,-3.25684 -3.77426,-6.80596 -1.31874,-5.26102 -1.31874,-15.53256 l 0,-32.65185 z" />
    <path
       inkscape:connector-curvature="0"
       id="path10626"
       style="font-style:normal;font-variant:normal;font-weight:bold;font-stretch:normal;font-size:30.71833038px;line-height:125%;font-family:Arial;-inkscape-font-specification:'Arial, Bold';text-align:start;letter-spacing:0px;word-spacing:0px;writing-mode:lr-tb;text-anchor:start;fill:#1c2e9e;fill-opacity:1;stroke:#1c2e9e;stroke-width:3.19559717;stroke-linecap:butt;stroke-linejoin:miter;stroke-miterlimit:4;stroke-dasharray:none;stroke-opacity:1"
       d="m 310.95579,173.59384 0,-61.21176 20.14452,0 12.09578,41.75429 11.9594,-41.75429 20.18999,0 0,61.21176 -12.50504,0 0,-48.18441 -13.23265,48.18441 -12.9598,0 -13.18716,-48.18441 0,48.18441 -12.50504,0 z" />
    <path
       inkscape:connector-curvature="0"
       id="path10628"
       style="font-style:normal;font-variant:normal;font-weight:bold;font-stretch:normal;font-size:30.71833038px;line-height:125%;font-family:Arial;-inkscape-font-specification:'Arial, Bold';text-align:start;letter-spacing:0px;word-spacing:0px;writing-mode:lr-tb;text-anchor:start;fill:#1c2e9e;fill-opacity:1;stroke:#1c2e9e;stroke-width:3.19559717;stroke-linecap:butt;stroke-linejoin:miter;stroke-miterlimit:4;stroke-dasharray:none;stroke-opacity:1"
       d="m 389.42362,153.67708 13.09623,-1.16913 q 1.18231,6.05435 4.77465,8.89367 3.63784,2.83926 9.7767,2.83926 6.50263,0 9.77667,-2.50523 3.31953,-2.54704 3.31953,-5.92914 0,-2.17121 -1.40967,-3.67436 -1.3642,-1.54491 -4.82012,-2.67228 -2.3646,-0.75158 -10.77709,-2.67228 -10.82256,-2.46348 -15.18798,-6.05435 -6.13883,-5.05227 -6.13883,-12.31751 0,-4.6765 2.8648,-8.72666 2.91026,-4.0919 8.32154,-6.22139 5.45674,-2.12946 13.14171,-2.12946 12.55051,0 18.87125,5.05227 6.36621,5.05227 6.68452,13.48664 l -13.46,0.54279 q -0.864,-4.71824 -3.72876,-6.76418 -2.81933,-2.08771 -8.50346,-2.08771 -5.86601,0 -9.18554,2.21298 -2.13721,1.41963 -2.13721,3.79965 0,2.17117 2.00082,3.7161 2.54648,1.96247 12.36861,4.0919 9.82219,2.12949 14.50587,4.42599 4.72922,2.2547 7.36663,6.22137 2.68291,3.92492 2.68291,9.72877 0,5.261 -3.18311,9.85397 -3.1831,4.59298 -9.00365,6.8477 -5.82052,2.21301 -14.50586,2.21301 -12.64149,0 -19.41694,-5.34458 -6.77548,-5.38626 -8.09422,-15.65781 z" />
    <path
       inkscape:connector-curvature="0"
       id="path10630"
       style="font-style:normal;font-variant:normal;font-weight:bold;font-stretch:normal;font-size:30.71833038px;line-height:125%;font-family:Arial;-inkscape-font-specification:'Arial, Bold';text-align:start;letter-spacing:0px;word-spacing:0px;writing-mode:lr-tb;text-anchor:start;fill:#1c2e9e;fill-opacity:1;stroke:#1c2e9e;stroke-width:3.19559717;stroke-linecap:butt;stroke-linejoin:miter;stroke-miterlimit:4;stroke-dasharray:none;stroke-opacity:1"
       d="m 452.83926,153.67708 13.09622,-1.16913 q 1.18229,6.05435 4.77463,8.89367 3.63787,2.83926 9.7767,2.83926 6.50263,0 9.7767,-2.50523 3.31949,-2.54704 3.31949,-5.92914 0,-2.17121 -1.40963,-3.67436 -1.3642,-1.54491 -4.82015,-2.67228 -2.36457,-0.75158 -10.77707,-2.67228 -10.82258,-2.46348 -15.18797,-6.05435 -6.13886,-5.05227 -6.13886,-12.31751 0,-4.6765 2.86479,-8.72666 2.91026,-4.0919 8.32157,-6.22139 5.45674,-2.12946 13.14166,-2.12946 12.55056,0 18.87128,5.05227 6.36621,5.05227 6.68452,13.48664 l -13.45997,0.54279 q -0.864,-4.71824 -3.7288,-6.76418 -2.81933,-2.08771 -8.50345,-2.08771 -5.86598,0 -9.18551,2.21298 -2.13725,1.41963 -2.13725,3.79965 0,2.17117 2.00082,3.7161 2.54649,1.96247 12.36865,4.0919 9.82213,2.12949 14.50586,4.42599 4.72919,2.2547 7.36664,6.22137 2.68288,3.92492 2.68288,9.72877 0,5.261 -3.18308,9.85397 -3.18314,4.59298 -9.00365,6.8477 -5.82055,2.21301 -14.50589,2.21301 -12.6415,0 -19.41695,-5.34458 -6.77547,-5.38626 -8.09418,-15.65781 z" />
    <path
       style="opacity:1;fill:url(#linearGradient10645);fill-opacity:1;stroke:none;stroke-width:2;stroke-linecap:round;stroke-linejoin:round;stroke-miterlimit:4;stroke-dasharray:none;stroke-opacity:1"
       d="M 63.902822,73.580352 688.7534,73.679706 681.15552,95.007615 70.808798,94.962877 Z"
       id="rect10636"
       inkscape:connector-curvature="0"
       sodipodi:nodetypes="ccccc" />
    <g
       id="g10657"
       transform="matrix(2.9050883,0,0,2.9050883,-708.71845,-950.88245)">
      <g
         style="stroke-width:2;stroke-miterlimit:4;stroke-dasharray:none"
         id="g10600">
        <path
           sodipodi:type="star"
           style="opacity:1;fill:none;fill-opacity:1;stroke:#1d3163;stroke-width:2.05655241;stroke-linecap:round;stroke-linejoin:round;stroke-miterlimit:4;stroke-dasharray:none;stroke-opacity:1"
           id="path10571"
           sodipodi:sides="5"
           sodipodi:cx="375.52185"
           sodipodi:cy="480.86664"
           sodipodi:r1="23.610308"
           sodipodi:r2="18.920746"
           sodipodi:arg1="0.26179939"
           sodipodi:arg2="0.89844617"
           inkscape:flatsided="false"
           inkscape:rounded="0"
           inkscape:randomized="0"
           d="m 398.32766,486.97744 -11.02147,8.69203 -10.54867,8.77512 -11.67244,-7.79605 -11.60535,-7.32072 3.8075,-13.51027 3.37617,-13.29957 14.02561,-0.55375 13.69194,-0.89886 4.8608,13.16802 z"
           inkscape:transform-center-x="-0.021607995"
           inkscape:transform-center-y="2.2343486"
           transform="matrix(0.94397342,0.04923859,-0.04650476,0.99946576,42.225102,-18.234779)" />
        <path
           sodipodi:type="star"
           style="opacity:1;fill:none;fill-opacity:1;stroke:#1d3163;stroke-width:2.08792734;stroke-linecap:round;stroke-linejoin:round;stroke-miterlimit:4;stroke-dasharray:none;stroke-opacity:1"
           id="path10573"
           sodipodi:sides="5"
           sodipodi:cx="374.70163"
           sodipodi:cy="481.29581"
           sodipodi:r1="23.856247"
           sodipodi:r2="9.0345478"
           sodipodi:arg1="0.32542701"
           sodipodi:arg2="0.92575136"
           inkscape:flatsided="false"
           inkscape:rounded="0"
           inkscape:randomized="0"
           d="m 397.30576,488.92297 -17.17225,-0.4079 -5.70068,16.63547 -4.91858,-16.45783 -17.58288,-0.28103 14.1324,-9.7636 -5.16614,-16.80915 13.65289,10.42359 14.39003,-10.1076 -5.69445,16.20574 z"
           inkscape:transform-center-x="-0.064174568"
           inkscape:transform-center-y="2.1932667"
           transform="matrix(0.93333892,-0.01760157,0.01922279,0.98271975,15.408123,14.412572)" />
        <path
           transform="matrix(0.250692,0.23323874,-0.23123408,0.28400279,391.26229,256.74345)"
           style="opacity:1;fill:none;fill-opacity:1;stroke:#1d3163;stroke-width:5.65391541;stroke-linecap:round;stroke-linejoin:round;stroke-miterlimit:4;stroke-dasharray:none;stroke-opacity:1"
           inkscape:transform-center-x="-0.16002772"
           inkscape:transform-center-y="-0.81098886"
           d="m 400.56233,484.89805 -22.39899,18.66555 -25.64736,-13.06672 6.16017,-27.70102 29.62246,-3.15714 z"
           id="path10575"
           inkscape:connector-curvature="0"
           sodipodi:nodetypes="cccccc" />
        <path
           style="fill:none;fill-rule:evenodd;stroke:#1d3163;stroke-width:2;stroke-linecap:butt;stroke-linejoin:miter;stroke-miterlimit:4;stroke-dasharray:none;stroke-opacity:1"
           d="m 352.90067,488.61689 42.47122,69.23627"
           id="path10582"
           inkscape:connector-curvature="0"
           sodipodi:nodetypes="cc" />
        <path
           sodipodi:nodetypes="cc"
           inkscape:connector-curvature="0"
           id="path10584"
           d="m 395.51057,488.20086 -42.47122,69.23627"
           style="fill:none;fill-rule:evenodd;stroke:#1d3163;stroke-width:2;stroke-linecap:butt;stroke-linejoin:miter;stroke-miterlimit:4;stroke-dasharray:none;stroke-opacity:1" />
        <path
           style="fill:none;fill-rule:evenodd;stroke:#1d3163;stroke-width:2;stroke-linecap:butt;stroke-linejoin:miter;stroke-miterlimit:4;stroke-dasharray:none;stroke-opacity:1"
           d="m 374.58349,504.01904 0,78.05457"
           id="path10586"
           inkscape:connector-curvature="0" />
        <path
           style="fill:#1d3163;fill-opacity:1;fill-rule:evenodd;stroke:none;stroke-width:2;stroke-linecap:butt;stroke-linejoin:miter;stroke-miterlimit:4;stroke-dasharray:none;stroke-opacity:1"
           d="m 371.30729,579.28531 3.23074,10.04073 3.38114,-9.99109 z"
           id="path10588"
           inkscape:path-effect="#path-effect10590"
           inkscape:original-d="m 374.61323,579.31013 -0.0752,10.01591"
           inkscape:connector-curvature="0"
           sodipodi:nodetypes="cc" />
        <path
           sodipodi:nodetypes="cc"
           inkscape:connector-curvature="0"
           inkscape:original-d="m 353.7767,556.12658 -5.6654,8.25998"
           inkscape:path-effect="#path-effect10594"
           id="path10592"
           d="m 351.05034,554.25661 -2.93904,10.12995 8.39176,-6.39001 z"
           style="fill:#1d3163;fill-opacity:1;fill-rule:evenodd;stroke:none;stroke-width:2;stroke-linecap:butt;stroke-linejoin:miter;stroke-miterlimit:4;stroke-dasharray:none;stroke-opacity:1" />
        <path
           style="fill:#1d3163;fill-opacity:1;fill-rule:evenodd;stroke:none;stroke-width:2;stroke-linecap:butt;stroke-linejoin:miter;stroke-miterlimit:4;stroke-dasharray:none;stroke-opacity:1"
           d="m 391.79414,557.99655 8.39176,6.39001 -2.93904,-10.12995 z"
           id="path10596"
           inkscape:path-effect="#path-effect10598"
           inkscape:original-d="m 394.5205,556.12658 5.6654,8.25998"
           inkscape:connector-curvature="0"
           sodipodi:nodetypes="cc" />
      </g>
    </g>
  </g>
</svg>
